<svg xmlns="http://www.w3.org/2000/svg" viewBox="0 0 64 64" width="64" height="64">
  <!-- Body -->
  <ellipse cx="32" cy="38" rx="20" ry="16" fill="#FF7043"/>

  <!-- Eyes -->
  <circle cx="24" cy="28" r="6" fill="white"/>
  <circle cx="40" cy="28" r="6" fill="white"/>
  <circle cx="25" cy="28" r="3" fill="#333"/>
  <circle cx="41" cy="28" r="3" fill="#333"/>

  <!-- Eye stalks -->
  <rect x="22" y="20" width="4" height="10" rx="2" fill="#FF5722"/>
  <rect x="38" y="20" width="4" height="10" rx="2" fill="#FF5722"/>

  <!-- Claws -->
  <ellipse cx="8" cy="42" rx="8" ry="6" fill="#FF5722"/>
  <ellipse cx="56" cy="42" rx="8" ry="6" fill="#FF5722"/>
  <ellipse cx="6" cy="40" rx="4" ry="3" fill="#FF7043"/>
  <ellipse cx="58" cy="40" rx="4" ry="3" fill="#FF7043"/>

  <!-- Legs -->
  <rect x="14" y="48" width="4" height="10" rx="2" fill="#FF5722" transform="rotate(-20 16 53)"/>
  <rect x="46" y="48" width="4" height="10" rx="2" fill="#FF5722" transform="rotate(20 48 53)"/>
  <rect x="20" y="50" width="4" height="8" rx="2" fill="#FF5722" transform="rotate(-10 22 54)"/>
  <rect x="40" y="50" width="4" height="8" rx="2" fill="#FF5722" transform="rotate(10 42 54)"/>

  <!-- Smile -->
  <path d="M26 44 Q32 50 38 44" fill="none" stroke="#BF360C" stroke-width="2" stroke-linecap="round"/>
</svg>
